<svg xmlns="http://www.w3.org/2000/svg" xmlns:xlink="http://www.w3.org/1999/xlink" zoomAndPan="magnify" preserveAspectRatio="xMidYMid meet" version="1.0" viewBox="98.13 167 163.81 47.37"><defs><g></g><clipPath id="304acdb566"><path d="M 98.148438 167 L 128.875 167 L 128.875 178.871094 L 98.148438 178.871094 Z M 98.148438 167 " clip-rule="nonzero"></path></clipPath></defs><g fill="#2563eb" fill-opacity="1"><g transform="translate(118.008381, 203.624987)"><g><path d="M 2.484375 -29.328125 C 2.484375 -30.441406 2.863281 -31.378906 3.625 -32.140625 C 4.382812 -32.898438 5.304688 -33.28125 6.390625 -33.28125 C 7.503906 -33.28125 8.445312 -32.898438 9.21875 -32.140625 C 10 -31.378906 10.390625 -30.441406 10.390625 -29.328125 C 10.390625 -28.242188 10 -27.320312 9.21875 -26.5625 C 8.445312 -25.800781 7.503906 -25.421875 6.390625 -25.421875 C 5.304688 -25.421875 4.382812 -25.800781 3.625 -26.5625 C 2.863281 -27.320312 2.484375 -28.242188 2.484375 -29.328125 Z M 9.609375 1.625 C 9.609375 4.75 8.832031 7.050781 7.28125 8.53125 C 5.738281 10.007812 3.40625 10.75 0.28125 10.75 C -0.582031 10.75 -1.328125 10.65625 -1.953125 10.46875 L -1.953125 5.125 C -1.578125 5.207031 -1.210938 5.25 -0.859375 5.25 C 0.472656 5.25 1.492188 4.960938 2.203125 4.390625 C 2.910156 3.828125 3.265625 2.796875 3.265625 1.296875 L 3.265625 -21.75 L 9.609375 -21.75 Z M 9.609375 1.625 "></path></g></g></g><g fill="#2563eb" fill-opacity="1"><g transform="translate(128.717986, 203.624987)"><g><path d="M 8.0625 -9.125 C 8.28125 -7.769531 8.898438 -6.71875 9.921875 -5.96875 C 10.941406 -5.21875 12.113281 -4.84375 13.4375 -4.84375 C 14.363281 -4.84375 15.28125 -5.070312 16.1875 -5.53125 C 17.101562 -6 17.804688 -6.640625 18.296875 -7.453125 L 22.890625 -4.4375 C 21.066406 -1.15625 17.945312 0.484375 13.53125 0.484375 C 11.320312 0.484375 9.316406 0.00390625 7.515625 -0.953125 C 5.710938 -1.921875 4.273438 -3.257812 3.203125 -4.96875 C 2.128906 -6.675781 1.59375 -8.660156 1.59375 -10.921875 C 1.59375 -12.492188 1.894531 -13.960938 2.5 -15.328125 C 3.113281 -16.703125 3.945312 -17.910156 5 -18.953125 C 6.0625 -20.003906 7.285156 -20.820312 8.671875 -21.40625 C 10.054688 -21.988281 11.535156 -22.28125 13.109375 -22.28125 C 15.285156 -22.28125 17.179688 -21.816406 18.796875 -20.890625 C 20.410156 -19.972656 21.671875 -18.695312 22.578125 -17.0625 C 23.492188 -15.4375 23.953125 -13.550781 23.953125 -11.40625 C 23.953125 -11.019531 23.953125 -10.632812 23.953125 -10.25 C 23.953125 -9.875 23.925781 -9.5 23.875 -9.125 Z M 17.59375 -13.3125 C 17.570312 -13.863281 17.390625 -14.429688 17.046875 -15.015625 C 16.703125 -15.597656 16.195312 -16.09375 15.53125 -16.5 C 14.875 -16.90625 14.015625 -17.109375 12.953125 -17.109375 C 12.003906 -17.109375 11.1875 -16.890625 10.5 -16.453125 C 9.820312 -16.023438 9.289062 -15.515625 8.90625 -14.921875 C 8.53125 -14.335938 8.304688 -13.800781 8.234375 -13.3125 Z M 17.59375 -13.3125 "></path></g></g></g><g fill="#2563eb" fill-opacity="1"><g transform="translate(152.377415, 203.624987)"><g><path d="M 16.375 -0.125 C 15.832031 0.0390625 15.320312 0.148438 14.84375 0.203125 C 14.375 0.253906 13.894531 0.28125 13.40625 0.28125 C 10.519531 0.28125 8.359375 -0.460938 6.921875 -1.953125 C 5.484375 -3.453125 4.765625 -5.4375 4.765625 -7.90625 L 4.765625 -16.25 L 0.859375 -16.25 L 0.859375 -21.75 L 4.84375 -21.75 L 4.84375 -28.5625 L 11.125 -28.5625 L 11.125 -21.75 L 16.5 -21.75 L 16.5 -16.25 L 11.125 -16.25 L 11.125 -8.671875 C 11.125 -7.398438 11.453125 -6.503906 12.109375 -5.984375 C 12.773438 -5.472656 13.707031 -5.21875 14.90625 -5.21875 C 15.070312 -5.21875 15.289062 -5.226562 15.5625 -5.25 C 15.832031 -5.28125 16.101562 -5.320312 16.375 -5.375 Z M 16.375 -0.125 "></path></g></g></g><g fill="#000000" fill-opacity="1"><g transform="translate(168.832596, 203.624987)"><g><path d="M 17.109375 -27.625 C 16.785156 -27.726562 16.40625 -27.789062 15.96875 -27.8125 C 15.53125 -27.84375 15.257812 -27.859375 15.15625 -27.859375 C 13.957031 -27.859375 13.007812 -27.539062 12.3125 -26.90625 C 11.625 -26.269531 11.28125 -25.3125 11.28125 -24.03125 L 11.28125 -21.75 L 16.984375 -21.75 L 16.984375 -16.328125 L 11.328125 -16.328125 L 11.328125 0 L 4.96875 0 L 4.96875 -16.328125 L 1.0625 -16.328125 L 1.0625 -21.75 L 4.96875 -21.75 L 4.96875 -23.90625 C 4.96875 -25.695312 5.285156 -27.296875 5.921875 -28.703125 C 6.566406 -30.117188 7.566406 -31.234375 8.921875 -32.046875 C 10.273438 -32.867188 12.015625 -33.28125 14.140625 -33.28125 C 14.492188 -33.28125 14.921875 -33.257812 15.421875 -33.21875 C 15.921875 -33.175781 16.484375 -33.046875 17.109375 -32.828125 Z M 17.109375 -27.625 "></path></g></g></g><g fill="#000000" fill-opacity="1"><g transform="translate(184.632533, 203.624987)"><g><path d="M 1.59375 -10.828125 C 1.59375 -12.460938 1.894531 -13.972656 2.5 -15.359375 C 3.113281 -16.742188 3.96875 -17.953125 5.0625 -18.984375 C 6.164062 -20.015625 7.4375 -20.8125 8.875 -21.375 C 10.3125 -21.945312 11.863281 -22.234375 13.53125 -22.234375 C 15.726562 -22.234375 17.710938 -21.742188 19.484375 -20.765625 C 21.265625 -19.796875 22.6875 -18.460938 23.75 -16.765625 C 24.8125 -15.066406 25.34375 -13.128906 25.34375 -10.953125 C 25.34375 -9.328125 25.035156 -7.8125 24.421875 -6.40625 C 23.804688 -5.007812 22.945312 -3.796875 21.84375 -2.765625 C 20.75 -1.734375 19.484375 -0.929688 18.046875 -0.359375 C 16.609375 0.203125 15.070312 0.484375 13.4375 0.484375 C 11.238281 0.484375 9.242188 0 7.453125 -0.96875 C 5.660156 -1.945312 4.234375 -3.289062 3.171875 -5 C 2.117188 -6.71875 1.59375 -8.660156 1.59375 -10.828125 Z M 8.109375 -10.921875 C 8.109375 -9.828125 8.351562 -8.859375 8.84375 -8.015625 C 9.332031 -7.179688 9.984375 -6.523438 10.796875 -6.046875 C 11.609375 -5.578125 12.503906 -5.34375 13.484375 -5.34375 C 14.972656 -5.34375 16.234375 -5.859375 17.265625 -6.890625 C 18.296875 -7.921875 18.8125 -9.265625 18.8125 -10.921875 C 18.8125 -12.003906 18.566406 -12.957031 18.078125 -13.78125 C 17.597656 -14.613281 16.957031 -15.265625 16.15625 -15.734375 C 15.351562 -16.210938 14.445312 -16.453125 13.4375 -16.453125 C 11.945312 -16.453125 10.6875 -15.9375 9.65625 -14.90625 C 8.625 -13.875 8.109375 -12.546875 8.109375 -10.921875 Z M 8.109375 -10.921875 "></path></g></g></g><g fill="#000000" fill-opacity="1"><g transform="translate(209.676536, 203.624987)"><g><path d="M 16.703125 -15.5625 C 16.210938 -15.644531 15.707031 -15.6875 15.1875 -15.6875 C 13.75 -15.6875 12.59375 -15.394531 11.71875 -14.8125 C 10.851562 -14.226562 10.226562 -13.445312 9.84375 -12.46875 C 9.46875 -11.488281 9.28125 -10.398438 9.28125 -9.203125 L 9.28125 0 L 2.9375 0 L 2.9375 -21.75 L 9.25 -21.75 L 9.25 -18.40625 L 9.28125 -18.40625 C 9.71875 -19.363281 10.472656 -20.203125 11.546875 -20.921875 C 12.617188 -21.640625 13.914062 -22 15.4375 -22 C 15.957031 -22 16.378906 -21.941406 16.703125 -21.828125 Z M 16.703125 -15.5625 "></path></g></g></g><g fill="#000000" fill-opacity="1"><g transform="translate(225.109974, 203.624987)"><g><path d="M 26.921875 -16.296875 C 25.648438 -16.296875 24.679688 -15.914062 24.015625 -15.15625 C 23.347656 -14.394531 23.015625 -13.390625 23.015625 -12.140625 L 23.015625 0 L 16.703125 0 L 16.703125 -12.0625 C 16.703125 -13.25 16.4375 -14.25 15.90625 -15.0625 C 15.375 -15.882812 14.457031 -16.296875 13.15625 -16.296875 C 11.851562 -16.296875 10.878906 -15.898438 10.234375 -15.109375 C 9.597656 -14.328125 9.28125 -13.3125 9.28125 -12.0625 L 9.28125 0 L 2.9375 0 L 2.9375 -21.75 L 9.171875 -21.75 L 9.171875 -18.90625 L 9.25 -18.90625 C 9.875 -20.019531 10.773438 -20.851562 11.953125 -21.40625 C 13.140625 -21.957031 14.351562 -22.234375 15.59375 -22.234375 C 16.90625 -22.234375 18.132812 -21.957031 19.28125 -21.40625 C 20.4375 -20.851562 21.328125 -19.976562 21.953125 -18.78125 C 22.984375 -19.914062 24.046875 -20.773438 25.140625 -21.359375 C 26.242188 -21.941406 27.585938 -22.234375 29.171875 -22.234375 C 30.960938 -22.234375 32.421875 -21.851562 33.546875 -21.09375 C 34.671875 -20.332031 35.5 -19.300781 36.03125 -18 C 36.5625 -16.695312 36.828125 -15.21875 36.828125 -13.5625 L 36.828125 0 L 30.46875 0 L 30.46875 -12.140625 C 30.46875 -13.335938 30.203125 -14.328125 29.671875 -15.109375 C 29.140625 -15.898438 28.222656 -16.296875 26.921875 -16.296875 Z M 26.921875 -16.296875 "></path></g></g></g><g clip-path="url(#304acdb566)"><path fill="#ff914d" d="M 128.890625 167.070312 L 128.890625 178.871094 L 98.128906 178.871094 L 98.128906 178.835938 Z M 128.890625 167.070312 " fill-opacity="1" fill-rule="evenodd"></path></g></svg>